<?xml version="1.0" encoding="UTF-8"?>
<!DOCTYPE svg PUBLIC "-//W3C//DTD SVG 1.1//EN" "http://www.w3.org/Graphics/SVG/1.1/DTD/svg11.dtd">
<!-- Creator: CorelDRAW X8 -->
<svg xmlns="http://www.w3.org/2000/svg" xml:space="preserve" width="13.2009mm" height="13.2062mm" version="1.1" style="shape-rendering:geometricPrecision; text-rendering:geometricPrecision; image-rendering:optimizeQuality; fill-rule:evenodd; clip-rule:evenodd"
viewBox="0 0 163 163"
 xmlns:xlink="http://www.w3.org/1999/xlink">
 <defs>
  <style type="text/css">
   <![CDATA[
    .str0 {stroke:#C5C6C6;stroke-width:6.1568}
    .fil0 {fill:none}
    .fil1 {fill:#C5C6C6;fill-rule:nonzero}
   ]]>
  </style>
 </defs>
 <g id="Слой_x0020_1">
  <metadata id="CorelCorpID_0Corel-Layer"/>
  <polygon class="fil0 str0" points="159,116 116,160 47,160 3,116 3,47 47,3 116,3 159,47 "/>
  <path class="fil1" d="M77 118l-47 0 0 -7 25 -28c3,-5 6,-8 7,-11 2,-3 2,-6 2,-8 0,-4 -1,-8 -3,-10 -2,-3 -5,-4 -9,-4 -5,0 -8,2 -11,4 -2,3 -3,7 -3,11l-9 0c0,-6 2,-12 6,-16 4,-4 10,-7 17,-7 6,0 12,2 16,6 3,4 5,8 5,14 0,8 -4,17 -13,27l-19 21 36 0 0 8zm30 0l-9 0 0 -63 -18 7 0 -9 26 -10 1 0 0 75z"/>
  <polygon class="fil1" points="135,79 149,79 149,85 135,85 135,100 129,100 129,85 115,85 115,79 129,79 129,64 135,64 "/>
 </g>
</svg>
